HIERARCHY
ROOT Hips
{
	OFFSET 54.590401 -1.380696 96.400703
	CHANNELS 6 Xposition Yposition Zposition Xrotation Yrotation Zrotation
	JOINT spine
	{
		OFFSET 0.000000 -0.467660 8.132492
		CHANNELS 3 Xrotation Yrotation Zrotation
		JOINT spine1
		{
			OFFSET 0.000000 -0.000002 10.349800
			CHANNELS 3 Xrotation Yrotation Zrotation
			JOINT spine2
			{
				OFFSET 0.000000 -0.000002 9.916992
				CHANNELS 3 Xrotation Yrotation Zrotation
				JOINT Neck
				{
					OFFSET 0.000000 -1.213904 25.460999
					CHANNELS 3 Xrotation Yrotation Zrotation
					JOINT Head
					{
						OFFSET 0.000000 -0.000001 7.692444
						CHANNELS 3 Xrotation Yrotation Zrotation
						End Site
						{
							OFFSET 0.000000 6.140627 18.619995
						}
					}
				}
				JOINT RightShoulder
				{
					OFFSET -4.175751 0.581443 10.709595
					CHANNELS 3 Xrotation Yrotation Zrotation
					JOINT RightArm
					{
						OFFSET 0.000000 -0.000002 14.046600
						CHANNELS 3 Xrotation Yrotation Zrotation
						JOINT RightArmRoll
						{
							OFFSET 0.000000 -0.000001 7.090988
							CHANNELS 3 Xrotation Yrotation Zrotation
							JOINT RightForeArm
							{
								OFFSET 0.000000 -0.000003 20.653503
								CHANNELS 3 Xrotation Yrotation Zrotation
								JOINT RightForeArmRoll
								{
									OFFSET 0.000000 -0.000001 7.957184
									CHANNELS 3 Xrotation Yrotation Zrotation
									JOINT RightHand
									{
										OFFSET 0.000000 -0.000003 15.968307
										CHANNELS 3 Xrotation Yrotation Zrotation
										End Site
										{
											OFFSET 0.000000 0.000000 0.100006
										}
									}
								}
							}
						}
					}
				}
				JOINT LeftShoulder
				{
					OFFSET 4.175751 0.581443 10.709595
					CHANNELS 3 Xrotation Yrotation Zrotation
					JOINT LeftArm
					{
						OFFSET 0.000000 -0.000002 14.046600
						CHANNELS 3 Xrotation Yrotation Zrotation
						JOINT LeftArmRoll
						{
							OFFSET 0.000000 -0.000001 7.090973
							CHANNELS 3 Xrotation Yrotation Zrotation
							JOINT LeftForeArm
							{
								OFFSET 0.000000 -0.000003 20.653503
								CHANNELS 3 Xrotation Yrotation Zrotation
								JOINT LeftForeArmRoll
								{
									OFFSET 0.000000 -0.000001 7.957184
									CHANNELS 3 Xrotation Yrotation Zrotation
									JOINT LeftHand
									{
										OFFSET 0.000000 -0.000003 15.968292
										CHANNELS 3 Xrotation Yrotation Zrotation
										End Site
										{
											OFFSET 0.000000 0.000000 0.100006
										}
									}
								}
							}
						}
					}
				}
			}
		}
	}
	JOINT RightUpLeg
	{
		OFFSET -7.208340 1.108840 -1.321823
		CHANNELS 3 Xrotation Yrotation Zrotation
		JOINT RightUpLegRoll
		{
			OFFSET 0.000000 -0.000003 18.723801
			CHANNELS 3 Xrotation Yrotation Zrotation
			JOINT RightLeg
			{
				OFFSET 0.000000 0.000004 -23.186600
				CHANNELS 3 Xrotation Yrotation Zrotation
				JOINT RightLegRoll
				{
					OFFSET 0.000000 -0.000004 23.262398
					CHANNELS 3 Xrotation Yrotation Zrotation
					JOINT RightFoot
					{
						OFFSET 0.000000 -0.000003 19.362106
						CHANNELS 3 Xrotation Yrotation Zrotation
						JOINT RightToeBase
						{
							OFFSET 0.000000 -0.000003 16.185699
							CHANNELS 3 Xrotation Yrotation Zrotation
							End Site
							{
								OFFSET 0.006859 0.903521 7.838623
							}
						}
					}
				}
			}
		}
	}
	JOINT LeftUpLeg
	{
		OFFSET 7.208340 1.108840 -1.321823
		CHANNELS 3 Xrotation Yrotation Zrotation
		JOINT LeftUpLegRoll
		{
			OFFSET 0.000000 -0.000003 18.723900
			CHANNELS 3 Xrotation Yrotation Zrotation
			JOINT LeftLeg
			{
				OFFSET 0.000000 -0.000004 23.186508
				CHANNELS 3 Xrotation Yrotation Zrotation
				JOINT LeftLegRoll
				{
					OFFSET 0.000000 -0.000004 23.477509
					CHANNELS 3 Xrotation Yrotation Zrotation
					JOINT LeftFoot
					{
						OFFSET 0.000000 -0.000003 19.147003
						CHANNELS 3 Xrotation Yrotation Zrotation
						JOINT LeftToeBase
						{
							OFFSET 0.000000 -0.000003 16.185699
							CHANNELS 3 Xrotation Yrotation Zrotation
							End Site
							{
								OFFSET -0.030746 0.903521 7.838623
							}
						}
					}
				}
			}
		}
	}
}
MOTION
Frames: 7
Frame Time: 0.041667
53.907303 -8.345168 96.031799 -2.328312 0.314744 0.167189 -0.554034 -0.597039 0.195823 2.886973 -1.180380 0.381665 4.532165 -1.175494 0.395679 13.104164 2.322759 -5.030645 -2.799884 -2.174653 -4.983708 -18.113293 -57.424911 -21.402160 -45.406275 -119.160068 -16.091232 -0.000003 0.000001 -0.000003 2.023971 -1.745621 -0.421408 0.000003 0.000009 -3.002372 -5.000187 -7.999938 0.000037 -13.934992 60.270798 16.504073 -43.140762 116.248044 27.593730 -0.000003 0.000002 0.000007 0.048129 6.396279 1.306379 -0.000000 -0.000006 3.049219 -5.000206 7.999194 -0.000105 -3.553344 -172.947439 3.568099 179.999991 -0.000005 -0.948995 168.507351 -2.061846 -0.704119 0.000002 0.000002 0.036184 69.308477 6.149745 4.024217 25.459658 -7.353698 0.004103 -2.477346 173.996569 -0.844009 -0.000019 -0.000004 -0.943598 -13.042951 1.121976 0.712888 0.000001 -0.000005 -0.171065 72.318651 -6.091790 -4.161661 25.464458 7.347659 -0.000008 
53.914402 -8.348457 96.030609 -2.313805 0.315556 0.169647 -0.552996 -0.597249 0.195228 2.889755 -1.182105 0.380990 4.534959 -1.177234 0.395028 13.119329 2.318117 -5.029083 -2.811710 -2.165902 -4.982449 -18.125905 -57.429480 -21.417235 -45.391634 -119.158784 -16.075661 -0.000005 -0.000001 -0.000007 2.030472 -1.746115 -0.421412 0.000006 0.000010 -3.002365 -5.000187 -7.999939 0.000039 -13.922425 60.267267 16.489190 -43.119637 116.250148 27.567359 -0.000003 0.000002 0.000009 0.048127 6.393761 1.307274 -0.000000 -0.000006 3.049219 -5.000207 7.999193 -0.000105 -3.571100 -172.951578 3.560986 179.999991 -0.000006 -0.948994 168.494579 -2.057843 -0.704781 0.000002 0.000002 0.036258 69.319016 6.149710 4.025826 25.459660 -7.353698 0.004104 -2.498407 173.997676 -0.839800 -0.000020 -0.000005 -0.943599 -13.056748 1.120968 0.712891 0.000001 -0.000005 -0.171569 72.326383 -6.092737 -4.159987 25.464456 7.347660 -0.000008 
53.915203 -8.348375 96.029190 -2.299412 0.316380 0.172148 -0.551952 -0.597420 0.194609 2.892577 -1.183800 0.380324 4.537782 -1.178944 0.394386 13.134698 2.313151 -5.027561 -2.823912 -2.156880 -4.981236 -18.138599 -57.434241 -21.432418 -45.378134 -119.156707 -16.061525 -0.000004 0.000000 -0.000003 2.037386 -1.746726 -0.421410 0.000003 0.000010 -3.002369 -5.000187 -7.999939 0.000039 -13.909781 60.263838 16.474222 -43.098497 116.252251 27.541187 -0.000002 0.000003 0.000010 0.048128 6.391309 1.308167 -0.000001 -0.000005 3.049220 -5.000206 7.999194 -0.000104 -3.588723 -172.955703 3.553823 179.999991 -0.000006 -0.948995 168.481902 -2.052851 -0.705236 0.000002 0.000002 0.036305 69.329473 6.149695 4.027343 25.459663 -7.353698 0.004104 -2.519363 173.997771 -0.835529 -0.000020 -0.000005 -0.943599 -13.070347 1.119913 0.712894 0.000001 -0.000005 -0.172046 72.333985 -6.093591 -4.158608 25.464458 7.347659 -0.000008 
53.918903 -8.354455 96.028793 -2.285116 0.317214 0.174679 -0.550900 -0.597563 0.193971 2.895440 -1.185485 0.379666 4.540636 -1.180624 0.393750 13.150262 2.307979 -5.026065 -2.836367 -2.147678 -4.980051 -18.151347 -57.439097 -21.447672 -45.363190 -119.155273 -16.045689 -0.000003 -0.000001 -0.000005 2.044591 -1.747418 -0.421410 0.000003 0.000010 -3.002368 -5.000186 -7.999938 0.000042 -13.897084 60.260423 16.459182 -43.077371 116.254369 27.515024 -0.000002 0.000002 0.000006 0.048127 6.388899 1.309045 0.000001 -0.000006 3.049219 -5.000205 7.999194 -0.000106 -3.606241 -172.959829 3.546614 179.999991 -0.000005 -0.948995 168.469239 -2.048837 -0.705887 0.000002 0.000002 0.036333 69.339800 6.149637 4.029160 25.459660 -7.353698 0.004103 -2.540240 173.998864 -0.831269 -0.000020 -0.000004 -0.943598 -13.083745 1.118829 0.712896 0.000002 -0.000005 -0.172504 72.341272 -6.094447 -4.157344 25.464460 7.347661 -0.000008 
53.916504 -8.357188 96.025803 -2.270863 0.318053 0.177228 -0.549847 -0.597691 0.193324 2.898302 -1.187150 0.379010 4.543510 -1.182304 0.393118 13.165924 2.302671 -5.024590 -2.848964 -2.138366 -4.978890 -18.164142 -57.444042 -21.462966 -45.349519 -119.153142 -16.031414 -0.000005 -0.000001 -0.000006 2.051954 -1.748149 -0.421411 0.000004 0.000010 -3.002371 -5.000184 -7.999940 0.000039 -13.884372 60.257110 16.444130 -43.056594 116.256623 27.489175 -0.000002 0.000003 0.000007 0.048127 6.386520 1.309919 -0.000001 -0.000005 3.049221 -5.000207 7.999194 -0.000104 -3.623713 -172.963968 3.539394 179.999991 -0.000007 -0.948995 168.456657 -2.043846 -0.706335 0.000003 0.000002 0.036349 69.350134 6.149580 4.030876 25.459656 -7.353697 0.004104 -2.561081 173.999957 -0.827015 -0.000019 -0.000005 -0.943599 -13.097040 1.117727 0.712898 0.000001 -0.000004 -0.172950 72.348547 -6.095268 -4.156174 25.464460 7.347659 -0.000008 
53.914204 -8.361554 96.024689 -2.256625 0.318894 0.179780 -0.548796 -0.597814 0.192674 2.901185 -1.188805 0.378356 4.546384 -1.183974 0.392487 13.181585 2.297333 -5.023105 -2.861612 -2.129034 -4.977718 -18.176913 -57.448899 -21.478240 -45.335855 -119.151011 -16.017034 -0.000004 -0.000000 -0.000006 2.059369 -1.748901 -0.421410 0.000003 0.000010 -3.002370 -5.000186 -7.999939 0.000039 -13.871616 60.253689 16.429023 -43.035659 116.258808 27.463281 -0.000002 0.000003 0.000007 0.048126 6.384149 1.310790 -0.000001 -0.000006 3.049220 -5.000208 7.999194 -0.000105 -3.641164 -172.968079 3.532168 179.999991 -0.000005 -0.948994 168.444090 -2.038857 -0.705782 0.000003 0.000002 0.036363 69.360469 6.149514 4.032691 25.459660 -7.353698 0.004103 -2.581911 174.001050 -0.822742 -0.000019 -0.000005 -0.943598 -13.110339 1.116615 0.712900 0.000001 -0.000005 -0.173394 72.355711 -6.096091 -4.155012 25.464458 7.347660 -0.000008 
53.918304 -8.369557 96.026192 -2.242361 0.319735 0.182324 -0.547744 -0.597946 0.192029 2.904047 -1.190470 0.377700 4.549246 -1.185644 0.391853 13.197250 2.292055 -5.021620 -2.874166 -2.119753 -4.976540 -18.189719 -57.453837 -21.493560 -45.322338 -119.148962 -16.002892 -0.000005 -0.000001 -0.000006 2.066702 -1.749623 -0.421407 0.000002 0.000011 -3.002369 -5.000188 -7.999938 0.000039 -13.858886 60.250273 16.413952 -43.016087 116.260270 27.438914 -0.000003 0.000003 0.000007 0.048129 6.381759 1.311673 -0.000001 -0.000005 3.049221 -5.000206 7.999194 -0.000105 -3.658634 -172.973202 3.525026 179.999991 -0.000005 -0.948995 168.431509 -2.033866 -0.706238 0.000002 0.000003 0.036382 69.370803 6.149449 4.034504 25.459662 -7.353698 0.004104 -2.602766 174.001159 -0.818443 -0.000020 -0.000004 -0.943598 -13.123638 1.115512 0.712899 0.000002 -0.000005 -0.173843 72.362986 -6.096910 -4.153841 25.464458 7.347660 -0.000009 
